<?xml version="1.0" encoding="UTF-8"?>
<svg width="115px" height="119px" viewBox="0 0 115 119" version="1.1" xmlns="http://www.w3.org/2000/svg" xmlns:xlink="http://www.w3.org/1999/xlink">
    <!-- Generator: Sketch 56.3 (81716) - https://sketch.com -->
    <title>Icons/Marca/Wheel-29</title>
    <desc>Created with Sketch.</desc>
    <g id="2---Pop-Up-/-Over" stroke="none" stroke-width="1" fill="none" fill-rule="evenodd" opacity="0.049999997">
        <g id="Compra_Pop-Up_Cancelar" transform="translate(-229.000000, -236.000000)" fill="#EFEFF1" fill-rule="nonzero">
            <g id="Organisms/Pop-Up" transform="translate(16.000000, 236.000000)">
                <g id="Pop-over">
                    <g id="Mask">
                        <g id="Icons/Marca/Wheel-29">
                            <g transform="translate(213.000000, -75.000000)" id="Fill-5-2">
                                <path d="M91.3037055,0.216055215 L94.7711902,41.3123742 C92.1407607,41.4156258 89.5561595,41.6999816 87.0322945,42.158816 L81.2237055,1.35955215 L91.3037055,0.216055215 Z M70.587638,3.71953988 L82.7238344,43.1240798 C80.1944479,43.7976994 77.735184,44.643589 75.3620552,45.6534663 L60.9819325,6.98328221 L70.587638,3.71953988 Z M51.3350368,11.4072515 L71.6711718,47.3884785 C69.3560184,48.5833252 67.1363865,49.9355337 65.0260798,51.4329571 L42.6503129,16.6509939 L51.3350368,11.4072515 Z M61.7319693,53.9630613 C59.7337485,55.6195031 57.8536871,57.4139816 56.1072454,59.331589 L26.6844233,30.2102393 L34.0235644,23.2062515 L61.7319693,53.9630613 Z M19.6537117,38.5463374 L53.378865,62.5702638 C51.7870245,64.611 50.333773,66.7649264 49.0367791,69.0204479 L14.0080061,46.974865 L19.6537117,38.5463374 Z M44.2940552,79.8039387 L5.32405521,65.7551043 L8.9974908,56.4078037 C9.01184663,56.3768834 9.02620245,56.3465153 9.04055828,56.3155951 L47.1602515,72.5785399 C46.0416012,74.9008712 45.0836258,77.3148589 44.2940552,79.8039387 Z M100.05662,41.331589 L98.8380307,41.2598098 L102.319871,5.52147239e-05 C102.91619,0.0326319018 103.511405,0.0701779141 104.104411,0.113245399 L111.890791,0.996128834 C112.061957,1.02318405 112.232571,1.05410429 112.403184,1.08171166 L106.564227,42.0952086 C105.218644,41.8599939 103.856497,41.672816 102.479442,41.5369877 C101.64073,41.4469877 100.825209,41.3763129 100.05662,41.331589 Z M132.64838,6.67893865 L118.214147,45.4954417 C115.837153,44.5048896 113.376785,43.6733558 110.84519,43.0196135 L123.043227,3.41519632 L132.64838,6.67893865 Z M128.569282,51.1831656 C126.449037,49.703411 124.221675,48.3677669 121.898791,47.1922454 L142.289589,11.1132883 C142.350877,11.1453129 142.411613,11.1773374 142.472902,11.2099141 L150.980387,16.3459877 L128.569282,51.1831656 Z M137.545485,59.0057117 C135.783583,57.101908 133.89027,55.3217853 131.878245,53.6808037 L159.60708,22.901908 L166.946221,29.9058957 L137.545485,59.0057117 Z M179.622417,46.6705215 L144.699656,68.6492945 C143.384442,66.4026074 141.916282,64.256411 140.306773,62.2267178 L173.976712,38.2419939 L179.622417,46.6705215 Z M188.30692,65.4505399 L149.539558,79.4264908 C148.730663,76.9401718 147.751706,74.5306012 146.614282,72.2126871 L184.595939,56.0088221 L188.30692,65.4505399 Z M192.93546,85.8492883 L151.992638,91.2951166 C151.74638,88.6790429 151.318466,86.1165276 150.721043,83.6191656 L191.312699,75.835546 L192.93546,85.8492883 Z M152.411387,96.575411 L152.413595,95.3546135 L193.653472,96.4881718 C193.653472,96.5008712 193.654025,96.5141227 193.654025,96.5273742 C193.654025,99.931362 193.475681,103.293387 193.132245,106.606822 L151.98292,103.112282 L152.112123,101.903632 C152.213718,100.955595 152.286049,100.07216 152.33519,99.2052883 C152.384331,98.2909325 152.40973,97.4063926 152.411387,96.575411 Z M151.018098,108.656061 L151.274294,107.462319 L191.440245,117.157472 C190.716933,120.483607 189.824663,123.745693 188.768957,126.934344 L149.240184,114.961031 L149.618405,113.805387 C149.914356,112.899313 150.169448,112.05011 150.397485,111.212503 C150.63546,110.327963 150.844172,109.46827 151.018098,108.656061 Z M179.90981,146.164914 L143.907049,125.716141 C145.274166,123.523012 146.491098,121.228288 147.544595,118.844669 L184.666558,137.204669 L179.90981,146.164914 Z M136.478405,135.168847 C138.290552,133.316945 139.973497,131.338601 141.512331,129.247067 L173.937178,155.035656 C173.871472,155.122896 173.804663,155.209031 173.737853,155.295718 L167.910491,162.20584 C167.733804,162.395779 167.558221,162.585718 167.380429,162.774552 L136.478405,135.168847 Z M2.20630061,77.3546135 C2.29409202,76.917865 2.3885092,76.4844294 2.48237423,76.0504417 L43.0364847,83.8274356 L42.8310859,84.7671902 C42.6538466,85.5788466 42.4882025,86.4484785 42.3391227,87.3512393 C42.2005337,88.2087239 42.0812699,89.0871902 41.976362,90.0346748 L41.8427423,91.2433252 L0.897711656,85.7974969 C0.943539877,85.3795215 0.989368098,84.961546 1.04071779,84.5457791 L2.20630061,77.3546135 Z M41.8434049,102.055914 L41.9731595,103.265117 L0.840398773,106.758 C0.490889571,103.432417 0.30702454,100.057693 0.303159509,96.640454 L41.5419325,95.5068957 L41.5441411,96.7276933 C41.5457975,97.5581227 41.5711963,98.4432147 41.6203374,99.3575706 C41.6694785,100.224442 41.7418098,101.107877 41.8434049,102.055914 Z M44.0331104,113.729466 L44.4113313,114.88511 L5.13709816,126.780571 C4.0880184,123.595233 3.20182209,120.337564 2.48458282,117.015847 L42.3766687,107.385847 L42.6334172,108.579589 C42.8073436,109.39235 43.0160552,110.252043 43.2540307,111.136583 C43.4820675,111.97419 43.7366074,112.82284 44.0331104,113.729466 Z M49.1940859,124.554037 L49.8174601,125.598699 L13.9063558,145.995018 C12.1797914,143.102319 10.6006503,140.111337 9.17776687,137.033117 L46.179362,118.732196 L46.6923067,119.840356 C47.041816,120.594037 47.4349448,121.387472 47.8617546,122.19692 C48.2692393,122.963853 48.7048834,123.735755 49.1940859,124.554037 Z M56.3533926,134.194528 L57.1832699,135.083485 L26.3988528,162.584834 C24.0903252,160.119497 21.9093436,157.534344 19.8669509,154.838209 L52.1780552,129.140172 L52.9140675,130.114712 C53.4143129,130.778393 53.965908,131.469681 54.5539448,132.17146 C55.1138221,132.835141 55.7029632,133.497718 56.3533926,134.194528 Z M70.0411779,144.786699 C72.2933865,146.046699 74.6422209,147.153755 77.0744294,148.092957 L60.6911166,186.155227 C60.6276196,186.129276 60.5635706,186.102773 60.5000736,186.076822 L52.1659632,182.205166 C51.9451043,182.089215 51.7242454,181.973264 51.5039387,181.855656 L70.0411779,144.786699 Z M65.4872883,142.008681 L66.4894356,142.697761 L42.3103558,176.266104 C41.3186994,175.584755 40.338638,174.887945 39.374589,174.171258 L37.1869816,172.499356 C36.1964294,171.71862 35.2240982,170.915798 34.2655706,170.097515 L60.3197423,137.973589 L61.248454,138.767025 C61.8801104,139.306472 62.5680859,139.863037 63.2936074,140.421258 C63.9837914,140.948558 64.702135,141.468681 65.4872883,142.008681 Z M87.3493926,151.061411 L88.5481043,151.264049 L80.7644847,191.841902 C77.405773,191.274847 74.1050368,190.53773 70.8738712,189.633313 L80.9632577,149.577791 L82.1393313,149.906319 C82.9393926,150.129939 83.7979816,150.344724 84.6913558,150.545153 C85.539454,150.732883 86.409638,150.902393 87.3493926,151.061411 Z M99.7540982,151.730061 L100.96827,151.668773 L102.157595,193.064356 C101.535877,193.096933 100.911399,193.119571 100.28692,193.140552 L93.7108466,193.142209 C93.1454479,193.123436 92.5794969,193.106871 92.0163067,193.07816 L93.1979018,151.664356 L93.8350798,151.698589 C93.9929939,151.707423 94.1514601,151.71681 94.3099264,151.723988 L94.4175951,151.730061 C95.2469202,151.775337 96.1314601,151.799632 97.0474724,151.80184 C97.916,151.801288 98.8016442,151.778098 99.7540982,151.730061 Z M112.486393,149.580221 L122.428908,189.806356 L112.616699,191.937644 C112.583018,191.943166 112.548233,191.948687 112.514,191.954209 L104.888847,151.223963 C107.483387,150.851816 110.020503,150.299669 112.486393,149.580221 Z M122.466564,145.569589 C122.818282,145.386276 123.168344,145.200202 123.515644,145.009712 L142.269325,181.951675 C141.885583,182.155417 141.503497,182.361368 141.11589,182.560141 L135.416626,185.252411 C134.641963,185.588669 133.862331,185.914988 133.077178,186.23192 L116.486258,148.321491 L117.617055,147.860448 C118.386196,147.54738 119.196748,147.191798 120.025521,146.802534 C120.68589,146.490571 121.357301,146.151552 122.051902,145.786031 C122.173926,145.723638 122.294847,145.659037 122.416319,145.596092 C122.425706,145.591123 122.433436,145.586706 122.442822,145.582288 L122.466564,145.569589 Z M132.532485,138.965963 L133.457331,138.17584 L159.607025,170.168356 C157.036779,172.356515 154.351135,174.412712 151.558926,176.325902 L127.299233,142.915472 L128.305798,142.22308 C128.99046,141.75265 129.706043,141.231975 130.432117,140.674859 C131.120092,140.144798 131.808067,139.585472 132.532485,138.965963 Z"></path>
                            </g>
                        </g>
                    </g>
                </g>
            </g>
        </g>
    </g>
</svg>